<!-- Generator: Adobe Illustrator 24.2.1, SVG Export Plug-In  -->
<svg version="1.1" xmlns="http://www.w3.org/2000/svg" xmlns:xlink="http://www.w3.org/1999/xlink" x="0px" y="0px" width="544.2px"
     height="544.2px" viewBox="0 0 544.2 544.2" style="overflow:visible;enable-background:new 0 0 544.2 544.2;"
     xml:space="preserve">
<defs>
</defs>
<g>
    <path style="fill:#1099FF;" d="M272.1,0C2.1,0,0,121.8,0,272.1s2.1,272.1,272.1,272.1s272.1-121.8,272.1-272.1S542.1,0,272.1,0z"/>
    <path style="fill:#FFFFFF;" d="M412.8,386.7c0-79.4,0-93.7,0-175.2c0-35.2,0-31.1,0-66.3c0-15.9-10.5-27-25.8-27
        c-76.6-0.1-153.1,0-229.7,0c-3,0-6.2,0.5-9.1,1.5c-10.8,3.8-16.8,13.2-16.8,25.7c0,59.1,0,24.8,0,83.9c0,57.6,0,100.1,0,157.5
        l-0.1,0c0,0,0-42,0,20.6c0,10.1,8.7,15.2,17.5,10.4c7.7-4.1,15.3-8.2,22.9-12.5c4.7-2.6,9-2.6,13.7,0c11,6.2,22.2,12.2,33.2,18.4
        c4.7,2.7,9.2,2.7,13.9,0c11-6.3,22.1-12.3,33.2-18.5c4.6-2.6,8.9-2.6,13.5,0c11.2,6.3,22.5,12.3,33.7,18.5c4.7,2.6,9,2.7,13.7,0
        c10.6-6.1,21.4-11.8,31.9-18c5.1-3,9.8-3,14.9,0c7.4,4.3,14.9,8.2,22.5,12.2c6.6,3.5,14.2,0.6,16.3-6.3c0.5-1.8,0.5-3.8,0.5-5.7
        C412.8,348.5,412.8,444.5,412.8,386.7L412.8,386.7z M182.4,225.1c7.5-12.1,15-24.3,22.6-36.4c5.4-8.6,15.9-8.3,20.8,0.5
        c5.6,9.9,11,19.9,16.6,29.9c0.5,0.9,1,1.7,1.8,3c8.5-12.7,16.8-25.1,25-37.5c7.2-10.7,14.3-21.4,21.5-32.1
        c5.8-8.6,14.8-8.7,20.8-0.2c16.9,24.2,33.7,48.3,50.5,72.5c5.4,7.8,2,17.7-6.9,20.1c-1.1,0.3-2.4,0.4-3.5,0.4
        c-52.6,0-105.1,0-157.7,0c-5.3,0-9.4-2-11.9-6.6C179.3,234.1,179.7,229.5,182.4,225.1z M174.2,288.8c0.8-6.6,6.3-12.3,12.8-13.4
        c1.6-0.3,3.2-0.4,4.8-0.4c50.2,0,100.3,0.1,150.5-0.1c13.6,0,20.2,12.3,16.4,22c-2.6,6.4-8.3,10.3-15.8,10.3c-25.3,0-50.6,0-75.8,0
        c-25.5,0-51,0-76.4,0C180.2,307.2,173,299,174.2,288.8z M190.4,329.8c14.9-0.1,29.8,0,44.7,0c14.9,0,29.8-0.1,44.7,0
        c8.1,0,14.9,6,15.9,13.6c1.1,8.3-3.5,15.6-11.2,17.9c-2,0.6-4.1,0.8-6.2,0.8c-28.8,0-57.6,0-86.3,0c-8.2,0-14.1-3.7-16.7-10.3
        C171,341.1,178.7,329.9,190.4,329.8z"/>
</g>
</svg>
