<?xml version="1.0" encoding="utf-8"?>
<!-- Generator: Adobe Illustrator 27.1.0, SVG Export Plug-In . SVG Version: 6.00 Build 0)  -->
<svg version="1.1" id="Layer_1" xmlns="http://www.w3.org/2000/svg" xmlns:xlink="http://www.w3.org/1999/xlink" x="0px"
	 y="0px"
	 viewBox="0 0 281.5 307.6" style="enable-background:new 0 0 281.5 307.6;" xml:space="preserve">
<g>
	<path d="M281.5,268.5c0-79.4,0-93.7,0-175.2c0-35.2,0-31.1,0-66.3c0-15.9-10.5-27-25.8-27C179.1-0.1,102.6,0,26,0
		c-3,0-6.2,0.5-9.1,1.5C6.1,5.3,0.1,14.7,0.1,27.2c0,59.1,0,24.8,0,83.9c0,57.6,0,100.1,0,157.5H0c0,0,0-42,0,20.6
		c0,10.1,8.7,15.2,17.5,10.4c7.7-4.1,15.3-8.2,22.9-12.5c4.7-2.6,9-2.6,13.7,0c11,6.2,22.2,12.2,33.2,18.4c4.7,2.7,9.2,2.7,13.9,0
		c11-6.3,22.1-12.3,33.2-18.5c4.6-2.6,8.9-2.6,13.5,0c11.2,6.3,22.5,12.3,33.7,18.5c4.7,2.6,9,2.7,13.7,0
		c10.6-6.1,21.4-11.8,31.9-18c5.1-3,9.8-3,14.9,0c7.4,4.3,14.9,8.2,22.5,12.2c6.6,3.5,14.2,0.6,16.3-6.3c0.5-1.8,0.5-3.8,0.5-5.7
		C281.5,230.3,281.5,326.3,281.5,268.5L281.5,268.5z M51.1,106.9c7.5-12.1,15-24.3,22.6-36.4c5.4-8.6,15.9-8.3,20.8,0.5
		c5.6,9.9,11,19.9,16.6,29.9c0.5,0.9,1,1.7,1.8,3c8.5-12.7,16.8-25.1,25-37.5c7.2-10.7,14.3-21.4,21.5-32.1
		c5.8-8.6,14.8-8.7,20.8-0.2c16.9,24.2,33.7,48.3,50.5,72.5c5.4,7.8,2,17.7-6.9,20.1c-1.1,0.3-2.4,0.4-3.5,0.4
		c-52.6,0-105.1,0-157.7,0c-5.3,0-9.4-2-11.9-6.6C48,115.9,48.4,111.3,51.1,106.9z M42.9,170.6c0.8-6.6,6.3-12.3,12.8-13.4
		c1.6-0.3,3.2-0.4,4.8-0.4c50.2,0,100.3,0.1,150.5-0.1c13.6,0,20.2,12.3,16.4,22c-2.6,6.4-8.3,10.3-15.8,10.3c-25.3,0-50.6,0-75.8,0
		c-25.5,0-51,0-76.4,0C48.9,189,41.7,180.8,42.9,170.6z M59.1,211.6c14.9-0.1,29.8,0,44.7,0s29.8-0.1,44.7,0c8.1,0,14.9,6,15.9,13.6
		c1.1,8.3-3.5,15.6-11.2,17.9c-2,0.6-4.1,0.8-6.2,0.8c-28.8,0-57.6,0-86.3,0c-8.2,0-14.1-3.7-16.7-10.3
		C39.7,222.9,47.4,211.7,59.1,211.6z"/>
</g>
</svg>
